<svg width="512" height="512" viewBox="0 0 512 512" fill="none" xmlns="http://www.w3.org/2000/svg">
<path fill-rule="evenodd" clip-rule="evenodd" d="M512 256C512 397.385 397.385 512 256 512C114.615 512 0 397.385 0 256C0 114.615 114.615 0 256 0C397.385 0 512 114.615 512 256ZM477 256C477 378.055 378.055 477 256 477C133.945 477 35 378.055 35 256C35 133.945 133.945 35 256 35C378.055 35 477 133.945 477 256ZM382 214V130H298V158H334.26L288.06 204.06L307.94 223.94L354 177.74V214H382ZM130 214V130H214V158H177.74L223.94 204.06L204.06 223.94L158 177.74V214H130ZM382 298V382H298V354H334.26L288.2 307.94L307.94 288.2L354 334.26V298H382ZM214 354V382H130V298H158V334.26L204.06 288.06L223.8 307.94L177.74 354H214Z" fill="#CC297B"/>
</svg>
