<svg width="512" height="512" viewBox="0 0 512 512" fill="none" xmlns="http://www.w3.org/2000/svg">
<path fill-rule="evenodd" clip-rule="evenodd" d="M512 256C512 397.385 397.385 512 256 512C114.615 512 0 397.385 0 256C0 114.615 114.615 0 256 0C397.385 0 512 114.615 512 256ZM477 256C477 378.055 378.055 477 256 477C133.945 477 35 378.055 35 256C35 133.945 133.945 35 256 35C378.055 35 477 133.945 477 256ZM287.325 131.086V224.772H381.064V193.543H340.6L392 142.172L369.971 120.156L318.571 171.527V131.086H287.325ZM131.092 193.543V224.772H224.832V131.086H193.585V171.527L142.185 120L120 142.172L171.557 193.543H131.092ZM381.064 318.457V287.228H287.325V380.914H318.571V340.473L369.971 391.844L392 369.828L340.6 318.457H381.064ZM224.832 380.914V287.228H131.092V318.457H171.557L120 369.828L142.185 392L193.585 340.473V380.914H224.832Z" fill="#CC297B"/>
</svg>
