<svg width="472" height="472" viewBox="0 0 472 472" fill="none" xmlns="http://www.w3.org/2000/svg">
<path d="M182 143H223V329H182V143Z" fill="#CC297B"/>
<path d="M289 143H248V329H289V143Z" fill="#CC297B"/>
<path fill-rule="evenodd" clip-rule="evenodd" d="M472 236C472 366.339 366.339 472 236 472C105.661 472 0 366.339 0 236C0 105.661 105.661 0 236 0C366.339 0 472 105.661 472 236ZM442 236C442 349.771 349.771 442 236 442C122.229 442 30 349.771 30 236C30 122.229 122.229 30 236 30C349.771 30 442 122.229 442 236Z" fill="#CC297B"/>
</svg>
